<svg xmlns="http://www.w3.org/2000/svg" version="1.1" xmlns:xlink="http://www.w3.org/1999/xlink" xmlns:svgjs="http://svgjs.dev/svgjs" width="1500" height="379" viewBox="0 0 1500 379"><g transform="matrix(1,0,0,1,0.25491573033696113,-0.9425446972165901)"><svg viewBox="0 0 356 90" data-background-color="#fafafa" preserveAspectRatio="xMidYMid meet" height="379" width="1500" xmlns="http://www.w3.org/2000/svg" xmlns:xlink="http://www.w3.org/1999/xlink"><g id="tight-bounds" transform="matrix(1,0,0,1,-0.06049999999996203,0.22382327902241173)"><svg viewBox="0 0 356.12052 89.55235344195519" height="89.55235344195519" width="356.12052"><g><svg viewBox="0 0 356.12052 89.55235344195519" height="89.55235344195519" width="356.12052"><g><svg viewBox="0 0 356.12052 89.55235344195519" height="89.55235344195519" width="356.12052"><g><path d="M0 89.552v-89.552h356.121v89.552z" fill="#130912" stroke="transparent" stroke-width="0" rx="0%" data-fill-palette-color="tertiary"></path><path d="M3.283 86.269v-82.986h349.554v82.986z" fill="#fafafa" stroke="transparent" stroke-width="0" rx="0%" data-fill-palette-color="quaternary"></path><path d="M9.85 79.702v-69.852h336.421v69.852z" fill="#130912" stroke="transparent" stroke-width="0" data-fill-palette-color="tertiary"></path></g><g transform="matrix(1,0,0,1,19.69974,19.69974)" id="textblocktransform"><svg viewBox="0 0 316.72104 50.152873441955194" height="50.152873441955194" width="316.72104" id="textblock"><g><svg viewBox="0 0 316.72104 50.152873441955194" height="50.152873441955194" width="316.72104"><g transform="matrix(1,0,0,1,0,0)"><svg width="316.72104" viewBox="3.8 -36.5 294.58 46.65" height="50.152873441955194" data-palette-color="#fafafa"><path d="M23.1 0L3.8 0 3.8-35 22.8-35Q25.45-35 27.45-33.83 29.45-32.65 30.6-30.65 31.75-28.65 31.75-26.1L31.75-26.1Q31.75-24.35 31.03-22.73 30.3-21.1 29-19.9 27.7-18.7 25.9-18.1L25.9-18.1Q27.95-17.6 29.45-16.3 30.95-15 31.83-13.2 32.7-11.4 32.7-9.3L32.7-9.3Q32.7-6.7 31.5-4.6 30.3-2.5 28.18-1.25 26.05 0 23.1 0L23.1 0ZM8.6-15.8L8.6-4.25 22-4.25Q23.85-4.25 25.15-5.08 26.45-5.9 27.18-7.23 27.9-8.55 27.9-10.05L27.9-10.05Q27.9-11.6 27.15-12.88 26.4-14.15 25.05-14.98 23.7-15.8 21.85-15.8L21.85-15.8 8.6-15.8ZM8.6-30.75L8.6-19.85 21.15-19.85Q22.9-19.85 24.23-20.63 25.55-21.4 26.28-22.68 27-23.95 27-25.35L27-25.35Q27-26.8 26.3-28.03 25.6-29.25 24.35-30 23.1-30.75 21.45-30.75L21.45-30.75 8.6-30.75ZM50.45 0.6L50.45 0.6Q46.55 0.6 43.55-1.18 40.55-2.95 38.8-5.98 37.05-9 37.05-12.75L37.05-12.75Q37.05-16.5 38.8-19.53 40.55-22.55 43.55-24.33 46.55-26.1 50.45-26.1L50.45-26.1Q54.35-26.1 57.37-24.33 60.4-22.55 62.12-19.53 63.85-16.5 63.85-12.75L63.85-12.75Q63.85-9 62.12-5.98 60.4-2.95 57.37-1.18 54.35 0.6 50.45 0.6ZM50.45-3.35L50.45-3.35Q53.1-3.35 55.05-4.6 57-5.85 58.1-7.98 59.2-10.1 59.2-12.75L59.2-12.75Q59.2-15.4 58.1-17.53 57-19.65 55.05-20.9 53.1-22.15 50.45-22.15L50.45-22.15Q47.85-22.15 45.87-20.9 43.9-19.65 42.8-17.53 41.7-15.4 41.7-12.75L41.7-12.75Q41.7-10.1 42.8-7.98 43.9-5.85 45.87-4.6 47.85-3.35 50.45-3.35ZM81.75 0.6L81.75 0.6Q77.85 0.6 74.85-1.18 71.85-2.95 70.1-5.98 68.35-9 68.35-12.75L68.35-12.75Q68.35-16.5 70.1-19.53 71.85-22.55 74.85-24.33 77.85-26.1 81.75-26.1L81.75-26.1Q85.65-26.1 88.67-24.33 91.7-22.55 93.42-19.53 95.15-16.5 95.15-12.75L95.15-12.75Q95.15-9 93.42-5.98 91.7-2.95 88.67-1.18 85.65 0.6 81.75 0.6ZM81.75-3.35L81.75-3.35Q84.4-3.35 86.35-4.6 88.3-5.85 89.4-7.98 90.5-10.1 90.5-12.75L90.5-12.75Q90.5-15.4 89.4-17.53 88.3-19.65 86.35-20.9 84.4-22.15 81.75-22.15L81.75-22.15Q79.15-22.15 77.17-20.9 75.2-19.65 74.1-17.53 73-15.4 73-12.75L73-12.75Q73-10.1 74.1-7.98 75.2-5.85 77.17-4.6 79.15-3.35 81.75-3.35ZM105.64 0L101.04 0 101.04-36.5 105.64-36.5 105.64-14.8 112.64-14.8 119.34-25.5 124.44-25.5 117.19-14.1Q120.79-13.05 122.82-10.18 124.84-7.3 124.84-3.5L124.84-3.5 124.84 0 120.19 0 120.19-3.5Q120.19-5.6 119.27-7.25 118.34-8.9 116.69-9.88 115.04-10.85 112.89-10.85L112.89-10.85 105.64-10.85 105.64 0ZM164.09 0L144.79 0 144.79-35 163.79-35Q166.44-35 168.44-33.83 170.44-32.65 171.59-30.65 172.74-28.65 172.74-26.1L172.74-26.1Q172.74-24.35 172.01-22.73 171.29-21.1 169.99-19.9 168.69-18.7 166.89-18.1L166.89-18.1Q168.94-17.6 170.44-16.3 171.94-15 172.81-13.2 173.69-11.4 173.69-9.3L173.69-9.3Q173.69-6.7 172.49-4.6 171.29-2.5 169.16-1.25 167.04 0 164.09 0L164.09 0ZM149.59-15.8L149.59-4.25 162.99-4.25Q164.84-4.25 166.14-5.08 167.44-5.9 168.16-7.23 168.89-8.55 168.89-10.05L168.89-10.05Q168.89-11.6 168.14-12.88 167.39-14.15 166.04-14.98 164.69-15.8 162.84-15.8L162.84-15.8 149.59-15.8ZM149.59-30.75L149.59-19.85 162.14-19.85Q163.89-19.85 165.21-20.63 166.54-21.4 167.26-22.68 167.99-23.95 167.99-25.35L167.99-25.35Q167.99-26.8 167.29-28.03 166.59-29.25 165.34-30 164.09-30.75 162.44-30.75L162.44-30.75 149.59-30.75ZM191.39 0.6L191.39 0.6Q187.94 0.6 185.21-0.83 182.49-2.25 180.96-4.8 179.44-7.35 179.44-10.75L179.44-10.75 179.44-25.5 184.09-25.5 184.09-10.8Q184.09-8.5 185.09-6.83 186.09-5.15 187.76-4.25 189.44-3.35 191.34-3.35L191.34-3.35Q193.29-3.35 194.96-4.25 196.64-5.15 197.66-6.83 198.69-8.5 198.69-10.8L198.69-10.8 198.69-25.5 203.34-25.5 203.34-10.75Q203.34-7.35 201.79-4.8 200.24-2.25 197.54-0.83 194.84 0.6 191.39 0.6ZM222.38 0.6L222.38 0.6Q226.08 0.6 229.03-1 231.98-2.6 233.71-5.63 235.43-8.65 235.43-12.9L235.43-12.9 235.43-36.5 230.83-36.5 230.83-20.95 230.73-20.95Q229.88-22.5 228.51-23.65 227.13-24.8 225.36-25.45 223.58-26.1 221.63-26.1L221.63-26.1Q218.08-26.1 215.28-24.5 212.48-22.9 210.86-19.98 209.23-17.05 209.23-13.05L209.23-13.05Q209.23-9.9 210.21-7.38 211.18-4.85 212.93-3.05 214.68-1.25 217.08-0.33 219.48 0.6 222.38 0.6ZM222.38-3.35L222.38-3.35Q220.03-3.35 218.11-4.5 216.18-5.65 215.03-7.75 213.88-9.85 213.88-12.75L213.88-12.75Q213.88-15.55 215.01-17.65 216.13-19.75 218.03-20.95 219.93-22.15 222.33-22.15L222.33-22.15Q224.68-22.15 226.61-21 228.53-19.85 229.66-17.73 230.78-15.6 230.78-12.7L230.78-12.7Q230.78-9.85 229.66-7.75 228.53-5.65 226.61-4.5 224.68-3.35 222.38-3.35ZM254.33 0.6L254.33 0.6Q258.03 0.6 260.98-1 263.93-2.6 265.66-5.63 267.38-8.65 267.38-12.9L267.38-12.9 267.38-36.5 262.78-36.5 262.78-20.95 262.68-20.95Q261.83-22.5 260.45-23.65 259.08-24.8 257.31-25.45 255.53-26.1 253.58-26.1L253.58-26.1Q250.03-26.1 247.23-24.5 244.43-22.9 242.81-19.98 241.18-17.05 241.18-13.05L241.18-13.05Q241.18-9.9 242.16-7.38 243.13-4.85 244.88-3.05 246.63-1.25 249.03-0.33 251.43 0.6 254.33 0.6ZM254.33-3.35L254.33-3.35Q251.98-3.35 250.06-4.5 248.13-5.65 246.98-7.75 245.83-9.85 245.83-12.75L245.83-12.75Q245.83-15.55 246.96-17.65 248.08-19.75 249.98-20.95 251.88-22.15 254.28-22.15L254.28-22.15Q256.63-22.15 258.56-21 260.48-19.85 261.61-17.73 262.73-15.6 262.73-12.7L262.73-12.7Q262.73-9.85 261.61-7.75 260.48-5.65 258.56-4.5 256.63-3.35 254.33-3.35ZM288.78 10.15L284.18 10.15 284.18 0.4Q281.38 0 279.2-1.48 277.03-2.95 275.78-5.33 274.53-7.7 274.53-10.75L274.53-10.75 274.53-25.5 279.18-25.5 279.18-10.8Q279.18-8.5 280.18-6.83 281.18-5.15 282.85-4.25 284.53-3.35 286.43-3.35L286.43-3.35Q288.38-3.35 290.05-4.25 291.73-5.15 292.75-6.83 293.78-8.5 293.78-10.8L293.78-10.8 293.78-25.5 298.38-25.5 298.38-10.75Q298.38-7.7 297.15-5.35 295.93-3 293.75-1.53 291.58-0.05 288.78 0.4L288.78 0.4 288.78 10.15Z" opacity="1" transform="matrix(1,0,0,1,0,0)" fill="#fafafa" class="wordmark-text-0" data-fill-palette-color="quaternary" id="text-0"></path></svg></g></svg></g></svg></g></svg></g><g></g></svg></g><defs></defs></svg><rect width="356.12052" height="89.55235344195519" fill="none" stroke="none" visibility="hidden"></rect></g></svg></g></svg>