<?xml version="1.0" encoding="utf-8"?>
<!-- Generator: Adobe Illustrator 27.5.0, SVG Export Plug-In . SVG Version: 6.00 Build 0)  -->
<svg version="1.1" xmlns="http://www.w3.org/2000/svg" xmlns:xlink="http://www.w3.org/1999/xlink" x="0px" y="0px"
	 viewBox="0 0 419.528 595.276" style="enable-background:new 0 0 419.528 595.276;" xml:space="preserve">
<g id="BACKGROUND">
	<rect style="fill:#AAE4E7;" width="419.528" height="595.276"/>
</g>
<g id="OBJECTS">
	<g>
		<defs>
			<rect id="SVGID_1_" width="419.528" height="595.276"/>
		</defs>
		<clipPath id="SVGID_00000112616286663401683030000009052738370855561402_">
			<use xlink:href="#SVGID_1_"  style="overflow:visible;"/>
		</clipPath>
		<g style="clip-path:url(#SVGID_00000112616286663401683030000009052738370855561402_);">
			<g>
				<g>
					<g>
						<g>
							<g>
								<g>
									<path style="fill:#2E3539;" d="M142.194,381.987c-89.475,0-162.01,85.018-162.01,189.893s72.534,189.893,162.01,189.893
										s162.009-85.018,162.009-189.893S231.669,381.987,142.194,381.987z M140.104,726.72
										c-59.64,0-106.142-69.324-106.142-154.84s46.502-154.84,106.142-154.84c59.64,0,113.861,69.324,113.861,154.84
										S199.744,726.72,140.104,726.72z"/>
									<path style="fill:#626E74;" d="M260.583,571.88c0-90.757-60.685-164.329-135.544-164.329
										c-74.859,0-135.544,73.573-135.544,164.329S50.18,736.21,125.039,736.21C199.898,736.21,260.583,662.637,260.583,571.88z
										 M140.104,726.72c-59.64,0-106.142-69.324-106.142-154.84s46.502-154.84,106.142-154.84
										c59.64,0,113.861,69.324,113.861,154.84S199.744,726.72,140.104,726.72z"/>
									<path style="fill:#626E74;" d="M16.321,473.729c16.599-6.946,33.683-11.455,50.344-14.187
										c18.915-26.339,44.645-42.501,73.439-42.501c20.569,0,40.491,8.25,57.769,22.562c1.935,1.603,4.883,0.641,5.468-1.803
										l0.013-0.056c-22.117-19.014-49.139-30.192-78.315-30.192C80.53,407.551,41.032,433.562,16.321,473.729z"/>
									<path style="fill:#4D727C;" d="M145.285,376.575c-26.965,0-52.099,8.391-73.973,23.185
										c12.421-4.06,25.497-6.221,39.042-6.221c82.434,0,157.704,80,164.162,181.379c0.436,6.853,6.143,12.178,13.01,12.178
										h11.835c7.173,0,13.039-5.791,13.043-12.964c0-0.044,0-0.088,0-0.132C312.404,464.965,232.822,376.575,145.285,376.575z"/>
									<path style="fill:#769BA8;" d="M208.6,392.23c-19.847-10.078-41.33-15.655-63.315-15.655
										c-15.479,0-30.354,2.77-44.356,7.924c63.107-9.748,125.561,34.013,158.165,69.386c1.12,1.215,3.074-0.1,2.371-1.595
										C255.392,439.389,240.129,413.387,208.6,392.23z"/>
									<path style="fill:#A3D7DA;" d="M290.33,466.599c-7.56-2.705-21.549,3.157-21.549,3.157
										c-10.032,10.444-9.43,25.344-2.254,35.584c5.838,8.33,16.387,13.51,26.184,11.236c0,0,11.268-11.28,11.493-22.124
										C304.428,483.608,290.33,466.599,290.33,466.599z"/>
									<path style="fill:#FFFFFF;" d="M303.263,483.842c2.186,10.863-3.479,21.167-12.655,23.014
										c-9.176,1.847-18.387-5.462-20.573-16.325c-2.187-10.863,3.479-21.167,12.655-23.014
										C291.865,465.67,301.076,472.979,303.263,483.842z"/>
									<path style="fill:#A3D7DA;" d="M304.428,483.608c-2.34-11.625-12.197-19.446-22.016-17.47
										c-0.689,0.139-1.356,0.326-2.006,0.551c7.281-0.221,14.543,7.579,16.719,18.389c2.176,10.81-1.503,20.812-8.302,23.425
										c0.686-0.044,1.375-0.13,2.063-0.268C300.705,506.258,306.768,495.232,304.428,483.608z"/>
								</g>
							</g>
							<g>
								<g>
									<path style="fill:#626E74;" d="M286.695,561.88l1.106,6.741c0.307,1.872,2.105,3.26,4.224,3.26h8.511
										c2.542,0,4.521-1.972,4.244-4.229l-0.829-6.741c-0.238-1.933-2.066-3.397-4.244-3.397h-8.788
										C288.315,557.514,286.317,559.578,286.695,561.88z"/>
								</g>
							</g>
						</g>
						<path style="fill:#2E3539;" d="M134.819,569.204c-0.01,0-0.02,0-0.03-0.002c-0.101-0.013-0.184-0.089-0.204-0.189
							l-29.593-147.348c-0.026-0.129,0.058-0.255,0.187-0.281c0.128-0.026,0.255,0.058,0.281,0.186l29.453,146.651l62.13-129.233
							c0.057-0.119,0.2-0.169,0.318-0.111c0.118,0.057,0.169,0.199,0.111,0.318l-62.438,129.874
							C134.994,569.152,134.91,569.204,134.819,569.204z M131.756,568.996l19.722-151.925c0.017-0.13-0.075-0.25-0.205-0.267
							c-0.131-0.018-0.25,0.075-0.267,0.206l-19.722,151.925c-0.017,0.13,0.075,0.25,0.206,0.267
							c0.01,0.001,0.021,0.002,0.031,0.002C131.638,569.204,131.74,569.116,131.756,568.996z M135.009,573.525
							c0.064-0.084,0.064-0.201,0.001-0.286L48.648,457.658c-0.079-0.106-0.228-0.127-0.333-0.048
							c-0.105,0.079-0.127,0.228-0.048,0.333l85.867,114.918L17.669,527.893c-0.122-0.047-0.261,0.013-0.308,0.137
							c-0.047,0.122,0.014,0.261,0.136,0.308l117.236,45.266c0.028,0.011,0.057,0.016,0.086,0.016
							C134.892,573.619,134.963,573.586,135.009,573.525z M34.666,649.509l97.006-80.36c0.083-0.068,0.109-0.184,0.065-0.281
							c-0.044-0.098-0.148-0.154-0.255-0.137L17.545,586.811c-0.13,0.021-0.219,0.143-0.198,0.273s0.144,0.217,0.273,0.198
							l113.077-17.945l-96.335,79.805c-0.101,0.084-0.115,0.234-0.032,0.336c0.047,0.057,0.115,0.086,0.184,0.086
							C34.568,649.564,34.621,649.545,34.666,649.509z M123.816,728.358l7.941-159.381c0.006-0.112-0.068-0.213-0.176-0.242
							c-0.109-0.029-0.223,0.021-0.274,0.121L64.18,698.772c-0.06,0.117-0.015,0.261,0.102,0.321
							c0.117,0.06,0.261,0.014,0.321-0.102l66.623-128.94l-7.887,158.284c-0.007,0.131,0.095,0.243,0.226,0.249
							c0.004,0,0.008,0,0.012,0C123.705,728.584,123.81,728.485,123.816,728.358z M188.532,710.194
							c0.122-0.049,0.181-0.188,0.132-0.31l-56.459-139.855l95.25,99.713c0.09,0.095,0.241,0.099,0.337,0.008
							c0.095-0.091,0.099-0.242,0.007-0.337l-96.108-100.611c-0.079-0.083-0.206-0.097-0.301-0.035
							c-0.096,0.062-0.134,0.183-0.092,0.289l56.924,141.008c0.037,0.093,0.127,0.149,0.221,0.149
							C188.473,710.211,188.503,710.206,188.532,710.194z M248.075,620.886c0.054-0.12,0-0.261-0.121-0.315L132.563,569.17
							l121.41-3.983c0.131-0.005,0.235-0.115,0.23-0.246c-0.004-0.131-0.096-0.241-0.246-0.23l-122.445,4.017
							c-0.111,0.004-0.205,0.084-0.226,0.193c-0.021,0.109,0.035,0.218,0.137,0.263l116.338,51.824
							c0.031,0.014,0.064,0.021,0.097,0.021C247.948,621.028,248.035,620.975,248.075,620.886z M131.644,569.168l109.517-67.24
							c0.112-0.069,0.147-0.215,0.078-0.328c-0.068-0.112-0.215-0.147-0.328-0.078l-109.517,67.24
							c-0.112,0.069-0.147,0.215-0.078,0.328c0.045,0.073,0.123,0.114,0.203,0.114C131.563,569.204,131.605,569.192,131.644,569.168
							z M131.664,569.155c0.086-0.066,0.117-0.181,0.076-0.28L76.421,434.98c-0.05-0.121-0.189-0.18-0.311-0.129
							c-0.122,0.05-0.179,0.189-0.129,0.311l54.977,133.066l-99.19-76.81c-0.104-0.079-0.253-0.061-0.334,0.043
							c-0.08,0.104-0.061,0.254,0.043,0.334l99.898,77.358c0.043,0.033,0.094,0.05,0.146,0.05
							C131.571,569.204,131.622,569.187,131.664,569.155z M27.633,621.003l103.993-51.824c0.096-0.048,0.148-0.154,0.127-0.259
							c-0.02-0.105-0.109-0.184-0.216-0.192l-113.937-8.712c-0.136-0.013-0.246,0.088-0.256,0.22
							c-0.01,0.131,0.088,0.246,0.219,0.256l113.076,8.646l-103.22,51.439c-0.118,0.059-0.166,0.201-0.107,0.319
							c0.042,0.084,0.126,0.132,0.213,0.132C27.563,621.028,27.599,621.02,27.633,621.003z M95.03,719.42l36.722-150.398
							c0.027-0.11-0.028-0.224-0.131-0.272c-0.101-0.047-0.225-0.017-0.293,0.075L51.319,677.105
							c-0.078,0.106-0.056,0.255,0.05,0.333c0.106,0.077,0.255,0.055,0.333-0.05l79.305-107.328L94.566,719.307
							c-0.031,0.128,0.047,0.256,0.175,0.288c0.019,0.005,0.038,0.007,0.057,0.007C94.906,719.602,95.003,719.529,95.03,719.42z
							 M158.572,724.75c0.13-0.022,0.217-0.146,0.194-0.276l-26.815-154.419l79.434,120.987c0.072,0.11,0.22,0.14,0.33,0.068
							c0.11-0.072,0.141-0.22,0.068-0.33l-80.065-121.947c-0.062-0.095-0.182-0.132-0.287-0.091
							c-0.105,0.041-0.167,0.151-0.147,0.262l27.012,155.551c0.02,0.116,0.121,0.197,0.234,0.197
							C158.545,724.754,158.559,724.753,158.572,724.75z M240.388,644.3c0.075-0.108,0.048-0.256-0.061-0.331L132.595,569.42
							l120.223,23.682c0.126,0.027,0.254-0.058,0.28-0.188c0.026-0.129-0.059-0.254-0.188-0.28l-121.344-23.903
							c-0.108-0.023-0.221,0.036-0.265,0.141c-0.044,0.104-0.009,0.224,0.084,0.289l108.672,75.199
							c0.041,0.029,0.088,0.042,0.135,0.042C240.267,644.402,240.342,644.367,240.388,644.3z M134.887,569.193l115.566-34.732
							c0.126-0.038,0.198-0.171,0.16-0.296c-0.038-0.127-0.171-0.198-0.296-0.16l-114.762,34.49l88.473-99.681
							c0.087-0.099,0.078-0.249-0.02-0.336c-0.099-0.087-0.249-0.079-0.337,0.02l-89.031,100.309
							c-0.071,0.08-0.08,0.197-0.023,0.287c0.045,0.07,0.121,0.11,0.201,0.11C134.842,569.204,134.865,569.2,134.887,569.193z"/>
					</g>
					<g>
						<g>
							<g>
								<g>
									<path style="fill:#4D727C;" d="M215.4,517.237c3.069,5.316-0.517,13.132-8.01,17.458
										c-7.493,4.326-16.055,3.524-19.124-1.792c-3.069-5.316,0.517-13.132,8.01-17.458
										C203.769,511.119,212.331,511.921,215.4,517.237z"/>
								</g>
								<g>
									<path style="fill:#769BA8;" d="M81.4,551.989c-1.361,4.879-8.039,7.28-14.916,5.362s-11.349-7.428-9.989-12.307
										c1.361-4.879,8.039-7.279,14.916-5.362C78.288,541.6,82.76,547.11,81.4,551.989z"/>
								</g>
							</g>
							<polyline style="fill:#2E3539;" points="115.857,330.363 -23.17,506.248 -34.285,482.94 95.593,327.2 							"/>
							<path style="fill:#2E3539;" d="M14.773,440.552c0,0,132.383,124.617,120.502,138.344
								C123.395,592.622-5.179,450.482-5.179,450.482L14.773,440.552z"/>
							<path style="fill:#2E3539;" d="M125.29,558.805C98.058,520.164,12.22,439.36,12.22,439.36l-11.185,5.567
								C27.268,470.549,92.428,533.472,125.29,558.805z"/>
						</g>
					</g>
					<g>
						<path style="fill:#769BA8;" d="M25.192,343.62c31.877-16.213,40.134-3.679,72.464-4.477
							c32.33-0.798,86.235-16.958,84.95-36.922c-1.285-19.964-72.123-22.815-138.422-8.556c-66.3,14.26-37.603,41.908-37.603,41.908
							L25.192,343.62z"/>
						<path style="fill:#4D727C;" d="M181.738,307.317c-19.697,7.598-45.068,11.911-70.677,5.462
							c-52.285-13.166-67.883,3.301-103.673,23.143l17.805,7.697l0,0c31.876-16.213,40.133-3.68,72.462-4.477
							c0.001,0,0.001,0,0.002,0c0.017,0,0.035-0.001,0.053-0.002c0.467-0.012,0.938-0.027,1.414-0.045
							c0.168-0.007,0.339-0.015,0.507-0.022c0.328-0.014,0.657-0.028,0.989-0.045c0.201-0.01,0.406-0.022,0.608-0.034
							c0.304-0.017,0.607-0.034,0.914-0.053c0.217-0.014,0.436-0.029,0.654-0.044c0.297-0.02,0.595-0.041,0.895-0.064
							c0.225-0.017,0.452-0.035,0.679-0.053c0.296-0.024,0.594-0.048,0.893-0.074c0.233-0.02,0.466-0.041,0.7-0.062
							c0.296-0.027,0.593-0.055,0.891-0.084c0.24-0.023,0.48-0.047,0.721-0.072c0.297-0.03,0.595-0.062,0.893-0.094
							c0.242-0.026,0.485-0.052,0.729-0.08c0.303-0.034,0.607-0.07,0.912-0.106c0.243-0.029,0.485-0.057,0.729-0.087
							c0.316-0.039,0.634-0.08,0.952-0.121c0.232-0.03,0.464-0.059,0.697-0.09c0.35-0.047,0.702-0.096,1.054-0.145
							c0.206-0.029,0.411-0.056,0.617-0.086c0.543-0.078,1.088-0.158,1.634-0.242c0.238-0.036,0.477-0.075,0.716-0.113
							c0.322-0.05,0.643-0.1,0.966-0.153c0.277-0.045,0.555-0.092,0.833-0.139c0.285-0.047,0.57-0.095,0.855-0.144
							c0.292-0.05,0.584-0.102,0.877-0.154c0.274-0.048,0.548-0.097,0.823-0.146c0.299-0.054,0.598-0.11,0.897-0.166
							c0.268-0.05,0.536-0.1,0.805-0.151c0.308-0.059,0.616-0.118,0.924-0.179c0.258-0.05,0.515-0.101,0.773-0.153
							c0.317-0.063,0.634-0.127,0.952-0.193c0.25-0.051,0.499-0.103,0.749-0.155c0.326-0.068,0.652-0.137,0.978-0.207
							c0.235-0.05,0.47-0.102,0.705-0.153c0.341-0.075,0.683-0.149,1.024-0.226c0.21-0.047,0.421-0.095,0.631-0.143
							c0.365-0.083,0.73-0.166,1.094-0.251c0.162-0.038,0.324-0.077,0.486-0.115c1.999-0.472,3.994-0.975,5.973-1.51
							c0.06-0.016,0.12-0.032,0.181-0.048c0.441-0.12,0.88-0.242,1.319-0.364c0.119-0.033,0.239-0.066,0.359-0.1
							c0.422-0.119,0.843-0.24,1.263-0.361c0.131-0.038,0.262-0.076,0.393-0.114c0.416-0.121,0.831-0.244,1.245-0.368
							c0.132-0.04,0.265-0.079,0.397-0.119c0.418-0.126,0.834-0.254,1.249-0.383c0.121-0.037,0.241-0.075,0.361-0.113
							c0.426-0.133,0.852-0.268,1.275-0.404c0.101-0.033,0.203-0.065,0.304-0.098c0.442-0.143,0.884-0.287,1.323-0.434
							c0.065-0.022,0.131-0.044,0.196-0.066c4.105-1.372,8.051-2.874,11.727-4.491c0.001,0,0.002-0.001,0.003-0.001
							c0.458-0.202,0.913-0.405,1.363-0.61c0.01-0.005,0.021-0.009,0.031-0.014c0.451-0.206,0.897-0.413,1.338-0.622
							c0.001,0,0.002-0.001,0.003-0.001C171.453,319.414,179.209,313.624,181.738,307.317z"/>
					</g>
				</g>
				<ellipse style="fill:#2E3539;" cx="131.52" cy="568.965" rx="13.165" ry="18.131"/>
			</g>
		</g>
		<path style="clip-path:url(#SVGID_00000112616286663401683030000009052738370855561402_);fill:#9EB48D;" d="M341.856,423.649
			c3.437-13.004,21.195,12.623,28.988,46.73C370.844,470.38,338.114,437.805,341.856,423.649z M383.77,492.846
			c0,0-4.551-74.072-10.247-60.162C365.223,452.954,383.77,492.846,383.77,492.846z M387.332,499.845c0,0-47.218-46.387-43.13-37.46
			C358.908,494.506,387.332,499.845,387.332,499.845z M395.934,518.915c0,0,9.679-59.772,3.745-52.269
			C386.651,483.122,395.934,518.915,395.934,518.915z M355.983,494.18c-0.193,5.639,17.536,28.604,45.1,38.526
			C401.083,532.705,356.176,488.541,355.983,494.18z M417.612,495.874c-7.002-5.013-14.178,30.421-12.011,52.07
			C405.601,547.944,424.614,500.888,417.612,495.874z M378.304,531.417c-6.93,1.23,7.541,23.745,27.934,42.561
			C406.238,573.977,385.234,530.187,378.304,531.417z M409.619,583.371c0,0,24.453-49.002,16.403-44.106
			C411.262,548.242,409.619,583.371,409.619,583.371z M409.956,575.746c0.217-0.012,0.384-0.196,0.373-0.414
			c-1.426-27.44-11.999-54.577-20.617-72.509c-9.334-19.423-18.454-32.539-18.545-32.669c-0.124-0.178-0.369-0.221-0.548-0.097
			c-0.178,0.125-0.221,0.37-0.097,0.548c0.091,0.129,9.173,13.193,18.481,32.559c8.587,17.868,19.121,44.9,20.54,72.209
			c0.011,0.21,0.185,0.373,0.393,0.373C409.943,575.746,409.949,575.746,409.956,575.746z"/>
		<path style="clip-path:url(#SVGID_00000112616286663401683030000009052738370855561402_);fill:#9EB48D;" d="M296.896,476.055
			c-4.078-12.009,37.814,19.092,51.747,37.223C348.643,513.278,308.569,510.433,296.896,476.055z M332.958,482.328
			c-12.791,0.695,36.426,49.115,36.426,49.115S342.845,481.792,332.958,482.328z M382.182,545.143c0,0-58.727-38.528-56.618-30.934
			C332.932,540.731,382.182,545.143,382.182,545.143z M395.623,563.125c0,0-10.302-68.326-24.738-60.75
			C363.84,506.073,395.623,563.125,395.623,563.125z M407.558,585.434c-25.113-25.079-56.001-48.991-50.154-34.473
			C367.221,575.334,407.558,585.434,407.558,585.434z M410.369,536.135c-6.529-10.785-8.359,25.492-5.572,43.232
			C404.798,579.368,416.898,546.92,410.369,536.135z M383.882,584.614c-10.527-3.467,0.89,11.907,28.004,39.056
			C411.886,623.669,394.408,588.081,383.882,584.614z M417.131,624.251c0,0,13.914-34.392,6.157-50.566
			C414.961,556.318,417.131,624.251,417.131,624.251z M416.685,617.511c0.215-0.033,0.362-0.234,0.329-0.449
			c-3.011-19.572-9.775-37.138-20.676-53.705c-10.891-16.55-25.966-32.559-47.444-50.383c-0.167-0.139-0.415-0.115-0.554,0.052
			c-0.139,0.167-0.116,0.415,0.051,0.554c42.263,35.074,61.919,65.09,67.845,103.602c0.03,0.195,0.197,0.334,0.388,0.334
			C416.645,617.516,416.665,617.514,416.685,617.511z"/>
		<path style="clip-path:url(#SVGID_00000112616286663401683030000009052738370855561402_);fill:#9EB48D;" d="M268.324,498.995
			c-4.077-12.009,37.814,19.092,51.747,37.223C320.071,536.217,279.996,533.373,268.324,498.995z M304.386,505.268
			c-12.791,0.695,36.426,49.115,36.426,49.115S314.272,504.731,304.386,505.268z M353.61,568.083c0,0-58.727-38.528-56.618-30.934
			C304.36,563.671,353.61,568.083,353.61,568.083z M367.051,586.064c0,0-10.302-68.326-24.738-60.75
			C335.268,529.012,367.051,586.064,367.051,586.064z M378.985,608.373c-25.113-25.08-56.001-48.991-50.154-34.473
			C338.649,598.274,378.985,608.373,378.985,608.373z M381.797,559.075c-6.529-10.785-8.359,25.492-5.572,43.232
			C376.225,602.307,388.325,569.86,381.797,559.075z M355.309,607.554c-10.527-3.467,0.89,11.907,28.004,39.056
			C383.314,646.609,365.836,611.021,355.309,607.554z M388.558,647.191c0,0,13.914-34.391,6.157-50.566
			C386.388,579.258,388.558,647.191,388.558,647.191z M388.113,640.451c0.215-0.033,0.362-0.234,0.329-0.449
			c-3.011-19.572-9.775-37.138-20.676-53.704c-10.891-16.55-25.966-32.559-47.444-50.383c-0.167-0.139-0.415-0.115-0.554,0.052
			c-0.139,0.167-0.116,0.415,0.051,0.554c42.263,35.074,61.919,65.09,67.845,103.602c0.03,0.194,0.198,0.333,0.389,0.333
			C388.072,640.456,388.093,640.454,388.113,640.451z"/>
		<path style="clip-path:url(#SVGID_00000112616286663401683030000009052738370855561402_);fill:#FFFFFF;" d="M210.814,112.409
			c-93.531-2.984-124.572,29.435-161.446,34.043c-42.732,5.34,11.943-110.077,26.378-53.118
			c50.444-66.976,100.115-30.628,68.303,1.383C172.878,93.918,195.361,99.583,210.814,112.409z"/>
		<path style="clip-path:url(#SVGID_00000112616286663401683030000009052738370855561402_);fill:#FFFFFF;" d="M119.185,214.906
			c0,0-18.638-5.106-19.404,6.383c-0.766,11.489,7.404,16.34,20.681,13.277c13.277-3.064,87.064-5.106,87.064-5.106
			s-25.532-12.511-26.809-18.383c-1.277-5.872-1.021-14.809-6.894-16.851c-5.872-2.042-7.149,3.064-7.149,3.064
			s-3.319,0.766-8.426-0.766c-5.106-1.532-15.064-1.021-22.213,6.638C128.887,210.82,123.677,215.757,119.185,214.906z"/>
		<g style="clip-path:url(#SVGID_00000112616286663401683030000009052738370855561402_);">
			<rect x="248.195" y="292.532" style="fill:none;" width="140.63" height="16.34"/>
			<text transform="matrix(1 0 0 1 262.0311 303.8917)" style="font-family:'JosefinSans-Regular'; font-size:16px;">By Emma Mayers</text>
		</g>
		<g style="clip-path:url(#SVGID_00000112616286663401683030000009052738370855561402_);">
			<rect x="240.787" y="55.638" style="fill:none;" width="143.234" height="221.574"/>
			<text transform="matrix(1 0 0 1 259.5897 113.8078)"><tspan x="0" y="0" style="font-family:'KaushanScript-Regular'; font-size:70px;">The </tspan><tspan x="-12.809" y="67" style="font-family:'KaushanScript-Regular'; font-size:70px;">Bike </tspan><tspan x="-4.34" y="134" style="font-family:'KaushanScript-Regular'; font-size:70px;">Guy</tspan></text>
		</g>
	</g>
</g>
</svg>
